<svg class="doks-images-light-mode svg-inline svg-inline-custom svg-lightmode" height="100%" width="70" viewBox="0 0 682 190" fill="none" xmlns="http://www.w3.org/2000/svg"><path d="M.616001 187V.375992H88.424c21.163.0 38.912 3.925338 53.248 11.776008 14.507 7.68 25.429 18.5173 32.768 32.512C181.949 58.6587 185.704 75.0427 185.704 93.816c0 19.968-4.011 36.864-12.032 50.688-7.851 13.824-19.029 24.405-33.536 31.744C125.629 183.416 108.392 187 88.424 187H.616001zM38.248 157.304H81.512c22.357.0 38.912-5.71700000000001 49.664-17.152 10.923-11.435 16.384-27.136 16.384-47.104.0-21.8453-6.059-37.8027-18.176-47.872-11.947-10.24-27.904-15.36-47.872-15.36H38.248V157.304zM281.82 189.56C265.777 189.56 251.697 186.744 239.58 181.112 227.463 175.48 217.991 167.373 211.164 156.792 204.508 146.211 201.18 133.581 201.18 118.904S204.508 91.6827 211.164 81.272C217.82 70.6907 227.207 62.584 239.324 56.952c12.117-5.8027 26.283-8.704 42.496-8.704 16.213.0 30.379 2.816 42.496 8.448C336.433 62.328 345.82 70.4347 352.476 81.016 359.132 91.4267 362.46 104.056 362.46 118.904 362.46 133.411 359.132 145.955 352.476 156.536s-16.043 18.773-28.16 24.576C312.369 186.744 298.204 189.56 281.82 189.56zm0-28.16c13.824.0 24.661-3.84 32.512-11.52s11.776-18.005 11.776-30.976C326.108 105.763 322.183 95.4373 314.332 87.928 306.652 80.248 295.815 76.408 281.82 76.408c-13.824.0-24.661 3.84-32.512 11.52C241.628 95.608 237.788 105.933 237.788 118.904S241.628 142.2 249.308 149.88C257.159 157.56 267.996 161.4 281.82 161.4zM384.068 187V.375992H420.42V110.2l17.152-15.36L490.82 50.808h46.336l-64.768 53.504L539.46 187H494.148l-38.656-48.64L446.02 125.56l-25.6 20.736V187H384.068zm227.244 2.56c-22.699.0-40.107-4.096-52.224-12.288C546.971 169.08 540.485 157.987 539.632 143.992H575.216c1.024 15.36 13.397 23.04 37.12 23.04C622.747 167.032 630.939 165.667 636.912 162.936 642.885 160.035 645.872 155.512 645.872 149.368 645.872 144.76 644.763 141.347 642.544 139.128 640.325 136.739 636.571 134.947 631.28 133.752 625.989 132.557 618.651 131.533 609.264 130.68 593.733 129.144 581.189 127.011 571.632 124.28 562.075 121.379 555.077 117.283 550.64 111.992 546.373 106.701 544.24 99.6187 544.24 90.744 544.24 77.7733 550.128 67.448 561.904 59.768c11.947-7.68 28.501-11.52 49.664-11.52C631.195 48.248 646.811 52.0027 658.416 59.512 670.021 67.0213 676.421 77.688 677.616 91.512H643.056C642.373 84.344 639.131 79.0533 633.328 75.64 627.525 72.2267 620.187 70.52 611.312 70.52 601.925 70.52 594.245 71.9707 588.272 74.872 582.469 77.6027 579.568 81.9547 579.568 87.928 579.568 93.9013 582.469 97.912 588.272 99.96 594.075 102.008 603.547 103.715 616.688 105.08 632.389 106.445 645.019 108.579 654.576 111.48 664.133 114.211 671.045 118.392 675.312 124.024 679.579 129.485 681.712 137.165 681.712 147.064c0 12.8-5.803 23.125-17.408 30.976C652.869 185.72 635.205 189.56 611.312 189.56z" fill="#1d2d35"/></svg>